<svg xmlns="http://www.w3.org/2000/svg" aria-hidden="true" focusable="false" style="position:absolute;width:0;height:0;overflow:hidden">
  <symbol id="icon-live-link" viewBox="0 0 24 24" fill="none" stroke="currentColor" stroke-width="2" stroke-linecap="round" stroke-linejoin="round">
    <rect width="18" height="12" x="3" y="4" rx="2" ry="2" />
    <line x1="2" x2="22" y1="20" y2="20" />
  </symbol>

  <symbol id="icon-mockup" viewBox="0 0 24 24" fill="none" stroke="currentColor" stroke-width="1.5" stroke-linecap="round" stroke-linejoin="round">
    <path d="M13 7 8.7 2.7a2.41 2.41 0 0 0-3.4 0L2.7 5.3a2.41 2.41 0 0 0 0 3.4L7 13" />
    <path d="m8 6 2-2" />
    <path d="m18 16 2-2" />
    <path d="m17 11 4.3 4.3c.94.94.94 2.46 0 3.4l-2.6 2.6c-.94.94-2.46.94-3.4 0L11 17" />
    <path d="M21.174 6.812a1 1 0 0 0-3.986-3.987L3.842 16.174a2 2 0 0 0-.5.83l-1.321 4.352a.5.5 0 0 0 .623.622l4.353-1.32a2 2 0 0 0 .83-.497z" />
    <path d="m15 5 4 4" />
  </symbol>

  <symbol id="icon-repository" viewBox="0 0 24 24" fill="none" stroke="currentColor" stroke-width="1.5" stroke-linecap="round" stroke-linejoin="round">
    <path d="m16 18 6-6-6-6" />
    <path d="m8 6-6 6 6 6" />
  </symbol>

  <symbol id="icon-case-study" viewBox="0 0 24 24" fill="none" stroke="currentColor" stroke-width="1.5" stroke-linecap="round" stroke-linejoin="round">
    <path d="M6 22a2 2 0 0 1-2-2V4a2 2 0 0 1 2-2h8a2.4 2.4 0 0 1 1.704.706l3.588 3.588A2.4 2.4 0 0 1 20 8v12a2 2 0 0 1-2 2z" />
    <path d="M14 2v5a1 1 0 0 0 1 1h5" />
    <path d="M10 9H8" />
    <path d="M16 13H8" />
    <path d="M16 17H8" />
  </symbol>
</svg>
